<?xml version="1.0" encoding="UTF-8" standalone="no"?>
<!DOCTYPE svg PUBLIC "-//W3C//DTD SVG 1.1//EN"
 "http://www.w3.org/Graphics/SVG/1.1/DTD/svg11.dtd">
<!-- Generated by graphviz version 2.40.1 (20161225.0304)
 -->
<!-- Title: unnamed Pages: 1 -->
<svg width="655pt" height="410pt"
 viewBox="0.00 0.00 655.00 410.00" xmlns="http://www.w3.org/2000/svg" xmlns:xlink="http://www.w3.org/1999/xlink">
<g id="graph0" class="graph" transform="scale(1 1) rotate(0) translate(4 406)">
<title>unnamed</title>
<polygon fill="#ffffff" stroke="transparent" points="-4,4 -4,-406 651,-406 651,4 -4,4"/>
<!-- Node0x564af2df1ab8 -->
<g id="node1" class="node">
<title>Node0x564af2df1ab8</title>
<polygon fill="none" stroke="#000000" points="412.5,-365.5 412.5,-401.5 516.5,-401.5 516.5,-365.5 412.5,-365.5"/>
<text text-anchor="middle" x="464.5" y="-379.8" font-family="Times,serif" font-size="14.00" fill="#000000">CompoundStmt</text>
</g>
<!-- Node0x564af2df19a0 -->
<g id="node2" class="node">
<title>Node0x564af2df19a0</title>
<polygon fill="none" stroke="#000000" points="294.5,-292.5 294.5,-328.5 368.5,-328.5 368.5,-292.5 294.5,-292.5"/>
<text text-anchor="middle" x="331.5" y="-306.8" font-family="Times,serif" font-size="14.00" fill="#000000">LabelStmt</text>
</g>
<!-- Node0x564af2df1ab8&#45;&gt;Node0x564af2df19a0 -->
<g id="edge1" class="edge">
<title>Node0x564af2df1ab8&#45;&gt;Node0x564af2df19a0</title>
<path fill="none" stroke="#000000" d="M431.6236,-365.4551C414.0392,-355.8035 392.1984,-343.8156 373.407,-333.5016"/>
<polygon fill="#000000" stroke="#000000" points="374.9096,-330.3338 364.4591,-328.5904 371.5414,-336.4702 374.9096,-330.3338"/>
</g>
<!-- Node0x564af2df1a58 -->
<g id="node3" class="node">
<title>Node0x564af2df1a58</title>
<polygon fill="none" stroke="#000000" points="387.5,-292.5 387.5,-328.5 455.5,-328.5 455.5,-292.5 387.5,-292.5"/>
<text text-anchor="middle" x="421.5" y="-306.8" font-family="Times,serif" font-size="14.00" fill="#000000">DeclStmt</text>
</g>
<!-- Node0x564af2df1ab8&#45;&gt;Node0x564af2df1a58 -->
<g id="edge2" class="edge">
<title>Node0x564af2df1ab8&#45;&gt;Node0x564af2df1a58</title>
<path fill="none" stroke="#000000" d="M453.8708,-365.4551C448.8575,-356.9441 442.7741,-346.6165 437.2403,-337.2219"/>
<polygon fill="#000000" stroke="#000000" points="440.2471,-335.4303 432.156,-328.5904 434.2157,-338.9831 440.2471,-335.4303"/>
</g>
<!-- Node0x564af2df1a70 -->
<g id="node4" class="node">
<title>Node0x564af2df1a70</title>
<polygon fill="none" stroke="#000000" points="473.5,-292.5 473.5,-328.5 543.5,-328.5 543.5,-292.5 473.5,-292.5"/>
<text text-anchor="middle" x="508.5" y="-306.8" font-family="Times,serif" font-size="14.00" fill="#000000">GotoStmt</text>
</g>
<!-- Node0x564af2df1ab8&#45;&gt;Node0x564af2df1a70 -->
<g id="edge3" class="edge">
<title>Node0x564af2df1ab8&#45;&gt;Node0x564af2df1a70</title>
<path fill="none" stroke="#000000" d="M475.3764,-365.4551C480.5063,-356.9441 486.7312,-346.6165 492.3936,-337.2219"/>
<polygon fill="#000000" stroke="#000000" points="495.4316,-338.9617 497.5962,-328.5904 489.4364,-335.3481 495.4316,-338.9617"/>
</g>
<!-- Node0x564af2df1aa8 -->
<g id="node5" class="node">
<title>Node0x564af2df1aa8</title>
<polygon fill="none" stroke="#000000" points="561.5,-292.5 561.5,-328.5 641.5,-328.5 641.5,-292.5 561.5,-292.5"/>
<text text-anchor="middle" x="601.5" y="-306.8" font-family="Times,serif" font-size="14.00" fill="#000000">ReturnStmt</text>
</g>
<!-- Node0x564af2df1ab8&#45;&gt;Node0x564af2df1aa8 -->
<g id="edge4" class="edge">
<title>Node0x564af2df1ab8&#45;&gt;Node0x564af2df1aa8</title>
<path fill="none" stroke="#000000" d="M498.3652,-365.4551C516.5607,-355.7596 539.1807,-343.7066 558.5964,-333.361"/>
<polygon fill="#000000" stroke="#000000" points="560.3702,-336.3818 567.5496,-328.5904 557.0784,-330.2041 560.3702,-336.3818"/>
</g>
<!-- Node0x564af2df1918 -->
<g id="node6" class="node">
<title>Node0x564af2df1918</title>
<polygon fill="none" stroke="#000000" points="297.5,-219.5 297.5,-255.5 359.5,-255.5 359.5,-219.5 297.5,-219.5"/>
<text text-anchor="middle" x="328.5" y="-233.8" font-family="Times,serif" font-size="14.00" fill="#000000">ForStmt</text>
</g>
<!-- Node0x564af2df19a0&#45;&gt;Node0x564af2df1918 -->
<g id="edge5" class="edge">
<title>Node0x564af2df19a0&#45;&gt;Node0x564af2df1918</title>
<path fill="none" stroke="#000000" d="M330.7584,-292.4551C330.4267,-284.3828 330.0278,-274.6764 329.6582,-265.6817"/>
<polygon fill="#000000" stroke="#000000" points="333.1512,-265.4382 329.2434,-255.5904 326.1571,-265.7257 333.1512,-265.4382"/>
</g>
<!-- Node0x564af2df1a38 -->
<g id="node19" class="node">
<title>Node0x564af2df1a38</title>
<polygon fill="none" stroke="#000000" points="378,-219.5 378,-255.5 469,-255.5 469,-219.5 378,-219.5"/>
<text text-anchor="middle" x="423.5" y="-233.8" font-family="Times,serif" font-size="14.00" fill="#000000">IntegerLiteral</text>
</g>
<!-- Node0x564af2df1a58&#45;&gt;Node0x564af2df1a38 -->
<g id="edge17" class="edge">
<title>Node0x564af2df1a58&#45;&gt;Node0x564af2df1a38</title>
<path fill="none" stroke="#000000" d="M421.9944,-292.4551C422.2155,-284.3828 422.4815,-274.6764 422.7279,-265.6817"/>
<polygon fill="#000000" stroke="#000000" points="426.2291,-265.6825 423.0044,-255.5904 419.2317,-265.4907 426.2291,-265.6825"/>
</g>
<!-- Node0x564af2df1a88 -->
<g id="node20" class="node">
<title>Node0x564af2df1a88</title>
<polygon fill="none" stroke="#000000" points="556,-219.5 556,-255.5 647,-255.5 647,-219.5 556,-219.5"/>
<text text-anchor="middle" x="601.5" y="-233.8" font-family="Times,serif" font-size="14.00" fill="#000000">IntegerLiteral</text>
</g>
<!-- Node0x564af2df1aa8&#45;&gt;Node0x564af2df1a88 -->
<g id="edge18" class="edge">
<title>Node0x564af2df1aa8&#45;&gt;Node0x564af2df1a88</title>
<path fill="none" stroke="#000000" d="M601.5,-292.4551C601.5,-284.3828 601.5,-274.6764 601.5,-265.6817"/>
<polygon fill="#000000" stroke="#000000" points="605.0001,-265.5903 601.5,-255.5904 598.0001,-265.5904 605.0001,-265.5903"/>
</g>
<!-- Node0x564af2df1800 -->
<g id="node7" class="node">
<title>Node0x564af2df1800</title>
<polygon fill="none" stroke="#000000" points="74.5,-146.5 74.5,-182.5 142.5,-182.5 142.5,-146.5 74.5,-146.5"/>
<text text-anchor="middle" x="108.5" y="-160.8" font-family="Times,serif" font-size="14.00" fill="#000000">DeclStmt</text>
</g>
<!-- Node0x564af2df1918&#45;&gt;Node0x564af2df1800 -->
<g id="edge6" class="edge">
<title>Node0x564af2df1918&#45;&gt;Node0x564af2df1800</title>
<path fill="none" stroke="#000000" d="M297.446,-227.1957C259.5359,-214.6165 195.185,-193.2637 152.2663,-179.0225"/>
<polygon fill="#000000" stroke="#000000" points="153.2431,-175.659 142.6496,-175.8315 151.0385,-182.3028 153.2431,-175.659"/>
</g>
<!-- Node0x564af2df1870 -->
<g id="node8" class="node">
<title>Node0x564af2df1870</title>
<polygon fill="none" stroke="#000000" points="219,-146.5 219,-182.5 320,-182.5 320,-146.5 219,-146.5"/>
<text text-anchor="middle" x="269.5" y="-160.8" font-family="Times,serif" font-size="14.00" fill="#000000">BinaryOperator</text>
</g>
<!-- Node0x564af2df1918&#45;&gt;Node0x564af2df1870 -->
<g id="edge7" class="edge">
<title>Node0x564af2df1918&#45;&gt;Node0x564af2df1870</title>
<path fill="none" stroke="#000000" d="M313.9157,-219.4551C306.8952,-210.7686 298.3452,-200.1898 290.6285,-190.642"/>
<polygon fill="#000000" stroke="#000000" points="293.129,-188.1677 284.121,-182.5904 287.6848,-192.5678 293.129,-188.1677"/>
</g>
<!-- Node0x564af2df18b0 -->
<g id="node9" class="node">
<title>Node0x564af2df18b0</title>
<polygon fill="none" stroke="#000000" points="338.5,-146.5 338.5,-182.5 436.5,-182.5 436.5,-146.5 338.5,-146.5"/>
<text text-anchor="middle" x="387.5" y="-160.8" font-family="Times,serif" font-size="14.00" fill="#000000">UnaryOperator</text>
</g>
<!-- Node0x564af2df1918&#45;&gt;Node0x564af2df18b0 -->
<g id="edge8" class="edge">
<title>Node0x564af2df1918&#45;&gt;Node0x564af2df18b0</title>
<path fill="none" stroke="#000000" d="M343.0843,-219.4551C350.1048,-210.7686 358.6548,-200.1898 366.3715,-190.642"/>
<polygon fill="#000000" stroke="#000000" points="369.3152,-192.5678 372.879,-182.5904 363.871,-188.1677 369.3152,-192.5678"/>
</g>
<!-- Node0x564af2df1900 -->
<g id="node10" class="node">
<title>Node0x564af2df1900</title>
<polygon fill="none" stroke="#000000" points="454.5,-146.5 454.5,-182.5 558.5,-182.5 558.5,-146.5 454.5,-146.5"/>
<text text-anchor="middle" x="506.5" y="-160.8" font-family="Times,serif" font-size="14.00" fill="#000000">CompoundStmt</text>
</g>
<!-- Node0x564af2df1918&#45;&gt;Node0x564af2df1900 -->
<g id="edge9" class="edge">
<title>Node0x564af2df1918&#45;&gt;Node0x564af2df1900</title>
<path fill="none" stroke="#000000" d="M359.867,-222.7873C362.776,-221.485 365.6867,-220.2049 368.5,-219 394.9553,-207.6692 424.604,-195.8479 449.6196,-186.1224"/>
<polygon fill="#000000" stroke="#000000" points="450.9032,-189.3787 458.9639,-182.503 448.3748,-182.8512 450.9032,-189.3787"/>
</g>
<!-- Node0x564af2df17e0 -->
<g id="node11" class="node">
<title>Node0x564af2df17e0</title>
<polygon fill="none" stroke="#000000" points="0,-73.5 0,-109.5 91,-109.5 91,-73.5 0,-73.5"/>
<text text-anchor="middle" x="45.5" y="-87.8" font-family="Times,serif" font-size="14.00" fill="#000000">IntegerLiteral</text>
</g>
<!-- Node0x564af2df1800&#45;&gt;Node0x564af2df17e0 -->
<g id="edge10" class="edge">
<title>Node0x564af2df1800&#45;&gt;Node0x564af2df17e0</title>
<path fill="none" stroke="#000000" d="M92.927,-146.4551C85.3548,-137.6809 76.1162,-126.9759 67.8115,-117.353"/>
<polygon fill="#000000" stroke="#000000" points="70.2955,-114.8742 61.1122,-109.5904 64.9961,-119.4477 70.2955,-114.8742"/>
</g>
<!-- Node0x564af2df1858 -->
<g id="node13" class="node">
<title>Node0x564af2df1858</title>
<polygon fill="none" stroke="#000000" points="109.5,-73.5 109.5,-109.5 219.5,-109.5 219.5,-73.5 109.5,-73.5"/>
<text text-anchor="middle" x="164.5" y="-87.8" font-family="Times,serif" font-size="14.00" fill="#000000">ImplicitCastExpr</text>
</g>
<!-- Node0x564af2df1870&#45;&gt;Node0x564af2df1858 -->
<g id="edge11" class="edge">
<title>Node0x564af2df1870&#45;&gt;Node0x564af2df1858</title>
<path fill="none" stroke="#000000" d="M243.5449,-146.4551C230.0412,-137.0667 213.3578,-125.4678 198.8035,-115.3491"/>
<polygon fill="#000000" stroke="#000000" points="200.729,-112.425 190.5204,-109.5904 196.7331,-118.1725 200.729,-112.425"/>
</g>
<!-- Node0x564af2df1838 -->
<g id="node14" class="node">
<title>Node0x564af2df1838</title>
<polygon fill="none" stroke="#000000" points="238,-73.5 238,-109.5 329,-109.5 329,-73.5 238,-73.5"/>
<text text-anchor="middle" x="283.5" y="-87.8" font-family="Times,serif" font-size="14.00" fill="#000000">IntegerLiteral</text>
</g>
<!-- Node0x564af2df1870&#45;&gt;Node0x564af2df1838 -->
<g id="edge12" class="edge">
<title>Node0x564af2df1870&#45;&gt;Node0x564af2df1838</title>
<path fill="none" stroke="#000000" d="M272.9607,-146.4551C274.5088,-138.3828 276.3703,-128.6764 278.0953,-119.6817"/>
<polygon fill="#000000" stroke="#000000" points="281.5844,-120.0706 280.0306,-109.5904 274.7097,-118.7521 281.5844,-120.0706"/>
</g>
<!-- Node0x564af2df1890 -->
<g id="node16" class="node">
<title>Node0x564af2df1890</title>
<polygon fill="none" stroke="#000000" points="347.5,-73.5 347.5,-109.5 435.5,-109.5 435.5,-73.5 347.5,-73.5"/>
<text text-anchor="middle" x="391.5" y="-87.8" font-family="Times,serif" font-size="14.00" fill="#000000">DeclRefExpr</text>
</g>
<!-- Node0x564af2df18b0&#45;&gt;Node0x564af2df1890 -->
<g id="edge14" class="edge">
<title>Node0x564af2df18b0&#45;&gt;Node0x564af2df1890</title>
<path fill="none" stroke="#000000" d="M388.4888,-146.4551C388.9311,-138.3828 389.4629,-128.6764 389.9558,-119.6817"/>
<polygon fill="#000000" stroke="#000000" points="393.4563,-119.7669 390.5087,-109.5904 386.4668,-119.3839 393.4563,-119.7669"/>
</g>
<!-- Node0x564af2df18e8 -->
<g id="node17" class="node">
<title>Node0x564af2df18e8</title>
<polygon fill="none" stroke="#000000" points="457.5,-73.5 457.5,-109.5 555.5,-109.5 555.5,-73.5 457.5,-73.5"/>
<text text-anchor="middle" x="506.5" y="-87.8" font-family="Times,serif" font-size="14.00" fill="#000000">UnaryOperator</text>
</g>
<!-- Node0x564af2df1900&#45;&gt;Node0x564af2df18e8 -->
<g id="edge15" class="edge">
<title>Node0x564af2df1900&#45;&gt;Node0x564af2df18e8</title>
<path fill="none" stroke="#000000" d="M506.5,-146.4551C506.5,-138.3828 506.5,-128.6764 506.5,-119.6817"/>
<polygon fill="#000000" stroke="#000000" points="510.0001,-119.5903 506.5,-109.5904 503.0001,-119.5904 510.0001,-119.5903"/>
</g>
<!-- Node0x0 -->
<g id="node12" class="node">
<title>Node0x0</title>
<polygon fill="none" stroke="#000000" points="535,-365.5 535,-401.5 604,-401.5 604,-365.5 535,-365.5"/>
<text text-anchor="middle" x="569.5" y="-379.8" font-family="Times,serif" font-size="14.00" fill="#000000">&lt;NULL&gt;</text>
</g>
<!-- Node0x564af2df1818 -->
<g id="node15" class="node">
<title>Node0x564af2df1818</title>
<polygon fill="none" stroke="#000000" points="120.5,-.5 120.5,-36.5 208.5,-36.5 208.5,-.5 120.5,-.5"/>
<text text-anchor="middle" x="164.5" y="-14.8" font-family="Times,serif" font-size="14.00" fill="#000000">DeclRefExpr</text>
</g>
<!-- Node0x564af2df1858&#45;&gt;Node0x564af2df1818 -->
<g id="edge13" class="edge">
<title>Node0x564af2df1858&#45;&gt;Node0x564af2df1818</title>
<path fill="none" stroke="#000000" d="M164.5,-73.4551C164.5,-65.3828 164.5,-55.6764 164.5,-46.6817"/>
<polygon fill="#000000" stroke="#000000" points="168.0001,-46.5903 164.5,-36.5904 161.0001,-46.5904 168.0001,-46.5903"/>
</g>
<!-- Node0x564af2df18c8 -->
<g id="node18" class="node">
<title>Node0x564af2df18c8</title>
<polygon fill="none" stroke="#000000" points="462.5,-.5 462.5,-36.5 550.5,-36.5 550.5,-.5 462.5,-.5"/>
<text text-anchor="middle" x="506.5" y="-14.8" font-family="Times,serif" font-size="14.00" fill="#000000">DeclRefExpr</text>
</g>
<!-- Node0x564af2df18e8&#45;&gt;Node0x564af2df18c8 -->
<g id="edge16" class="edge">
<title>Node0x564af2df18e8&#45;&gt;Node0x564af2df18c8</title>
<path fill="none" stroke="#000000" d="M506.5,-73.4551C506.5,-65.3828 506.5,-55.6764 506.5,-46.6817"/>
<polygon fill="#000000" stroke="#000000" points="510.0001,-46.5903 506.5,-36.5904 503.0001,-46.5904 510.0001,-46.5903"/>
</g>
</g>
</svg>
