<?xml version="1.0" encoding="UTF-8" standalone="no"?>
<!DOCTYPE svg PUBLIC "-//W3C//DTD SVG 1.1//EN"
 "http://www.w3.org/Graphics/SVG/1.1/DTD/svg11.dtd">
<!-- Generated by graphviz version 2.40.1 (20161225.0304)
 -->
<!-- Title: unnamed Pages: 1 -->
<svg width="411pt" height="497pt"
 viewBox="0.00 0.00 411.00 497.00" xmlns="http://www.w3.org/2000/svg" xmlns:xlink="http://www.w3.org/1999/xlink">
<g id="graph0" class="graph" transform="scale(1 1) rotate(0) translate(4 493)">
<title>unnamed</title>
<polygon fill="#ffffff" stroke="transparent" points="-4,4 -4,-493 407,-493 407,4 -4,4"/>
<!-- Node0x5604dfa66f30 -->
<g id="node1" class="node">
<title>Node0x5604dfa66f30</title>
<polygon fill="none" stroke="#000000" points="12.5,-331.5 12.5,-367.5 97.5,-367.5 97.5,-331.5 12.5,-331.5"/>
<text text-anchor="start" x="20.5" y="-345.8" font-family="Times,serif" font-size="14.00" fill="#000000">[B0 (EXIT)]</text>
</g>
<!-- Node0x5604dfa67008 -->
<g id="node2" class="node">
<title>Node0x5604dfa67008</title>
<polygon fill="none" stroke="#000000" points="0,-428 0,-481 110,-481 110,-428 0,-428"/>
<text text-anchor="start" x="8" y="-465.8" font-family="Times,serif" font-size="14.00" fill="#000000">[B1]</text>
<text text-anchor="start" x="8" y="-450.8" font-family="Times,serif" font-size="14.00" fill="#000000"> 1: 0</text>
<text text-anchor="start" x="8" y="-435.8" font-family="Times,serif" font-size="14.00" fill="#000000"> 2: return [B1.1];</text>
</g>
<!-- Node0x5604dfa67008&#45;&gt;Node0x5604dfa66f30 -->
<g id="edge1" class="edge">
<title>Node0x5604dfa67008&#45;&gt;Node0x5604dfa66f30</title>
<path fill="none" stroke="#000000" d="M55,-427.7324C55,-412.4286 55,-393.2491 55,-377.7108"/>
<polygon fill="#000000" stroke="#000000" points="58.5001,-377.6276 55,-367.6277 51.5001,-377.6277 58.5001,-377.6276"/>
</g>
<!-- Node0x5604dfa670f8 -->
<g id="node3" class="node">
<title>Node0x5604dfa670f8</title>
<polygon fill="none" stroke="#000000" points="245.5,-420.5 245.5,-488.5 328.5,-488.5 328.5,-420.5 245.5,-420.5"/>
<text text-anchor="start" x="253.5" y="-473.3" font-family="Times,serif" font-size="14.00" fill="#000000">[B2]</text>
<text text-anchor="start" x="253.5" y="-458.3" font-family="Times,serif" font-size="14.00" fill="#000000"> 1: 0</text>
<text text-anchor="start" x="253.5" y="-443.3" font-family="Times,serif" font-size="14.00" fill="#000000"> 2: int j = 0;</text>
<text text-anchor="start" x="253.5" y="-428.3" font-family="Times,serif" font-size="14.00" fill="#000000"> T: goto L1;</text>
</g>
<!-- Node0x5604dfa67490 -->
<g id="node4" class="node">
<title>Node0x5604dfa67490</title>
<polygon fill="none" stroke="#000000" points="175.5,-315.5 175.5,-383.5 258.5,-383.5 258.5,-315.5 175.5,-315.5"/>
<text text-anchor="start" x="183.5" y="-368.3" font-family="Times,serif" font-size="14.00" fill="#000000">[B6]</text>
<text text-anchor="start" x="183.5" y="-353.3" font-family="Times,serif" font-size="14.00" fill="#000000">L1:</text>
<text text-anchor="start" x="183.5" y="-338.3" font-family="Times,serif" font-size="14.00" fill="#000000"> 1: 0</text>
<text text-anchor="start" x="183.5" y="-323.3" font-family="Times,serif" font-size="14.00" fill="#000000"> 2: int i = 0;</text>
</g>
<!-- Node0x5604dfa670f8&#45;&gt;Node0x5604dfa67490 -->
<g id="edge2" class="edge">
<title>Node0x5604dfa670f8&#45;&gt;Node0x5604dfa67490</title>
<path fill="none" stroke="#000000" d="M264.273,-420.4095C258.2824,-411.4235 251.7425,-401.6137 245.4899,-392.2348"/>
<polygon fill="#000000" stroke="#000000" points="248.3117,-390.1578 239.8525,-383.7788 242.4874,-394.0407 248.3117,-390.1578"/>
</g>
<!-- Node0x5604dfa67398 -->
<g id="node6" class="node">
<title>Node0x5604dfa67398</title>
<polygon fill="none" stroke="#000000" points="101,-180.5 101,-278.5 403,-278.5 403,-180.5 101,-180.5"/>
<text text-anchor="start" x="109" y="-263.3" font-family="Times,serif" font-size="14.00" fill="#000000">[B5]</text>
<text text-anchor="start" x="109" y="-248.3" font-family="Times,serif" font-size="14.00" fill="#000000"> 1: i</text>
<text text-anchor="start" x="109" y="-233.3" font-family="Times,serif" font-size="14.00" fill="#000000"> 2: [B5.1] (ImplicitCastExpr, LValueToRValue, int)</text>
<text text-anchor="start" x="109" y="-218.3" font-family="Times,serif" font-size="14.00" fill="#000000"> 3: 2</text>
<text text-anchor="start" x="109" y="-203.3" font-family="Times,serif" font-size="14.00" fill="#000000"> 4: [B5.2] &lt; [B5.3]</text>
<text text-anchor="start" x="109" y="-188.3" font-family="Times,serif" font-size="14.00" fill="#000000"> T: for (...; [B5.4]; ...)</text>
</g>
<!-- Node0x5604dfa67490&#45;&gt;Node0x5604dfa67398 -->
<g id="edge7" class="edge">
<title>Node0x5604dfa67490&#45;&gt;Node0x5604dfa67398</title>
<path fill="none" stroke="#000000" d="M226.936,-315.4338C229.37,-307.0885 232.0458,-297.9144 234.7149,-288.7631"/>
<polygon fill="#000000" stroke="#000000" points="238.1568,-289.4623 237.5968,-278.8822 231.4368,-287.5022 238.1568,-289.4623"/>
</g>
<!-- Node0x5604dfa671e8 -->
<g id="node5" class="node">
<title>Node0x5604dfa671e8</title>
<polygon fill="none" stroke="#000000" points="209,-.5 209,-53.5 295,-53.5 295,-.5 209,-.5"/>
<text text-anchor="start" x="217" y="-38.3" font-family="Times,serif" font-size="14.00" fill="#000000">[B3]</text>
<text text-anchor="start" x="217" y="-23.3" font-family="Times,serif" font-size="14.00" fill="#000000"> 1: i</text>
<text text-anchor="start" x="217" y="-8.3" font-family="Times,serif" font-size="14.00" fill="#000000"> 2: [B3.1]++</text>
</g>
<!-- Node0x5604dfa671e8&#45;&gt;Node0x5604dfa67398 -->
<g id="edge3" class="edge">
<title>Node0x5604dfa671e8&#45;&gt;Node0x5604dfa67398</title>
<path fill="none" stroke="#000000" d="M243.656,-53.6969C240.5955,-64.8044 237.5117,-77.9066 236,-90 232.7047,-116.3625 235.1149,-145.5616 238.97,-170.4042"/>
<polygon fill="#000000" stroke="#000000" points="235.5403,-171.1159 240.6346,-180.4055 242.4453,-169.9666 235.5403,-171.1159"/>
</g>
<!-- Node0x5604dfa67398&#45;&gt;Node0x5604dfa670f8 -->
<g id="edge6" class="edge">
<title>Node0x5604dfa67398&#45;&gt;Node0x5604dfa670f8</title>
<path fill="none" stroke="#000000" d="M261.6405,-278.7084C263.8451,-290.5719 266.0972,-303.2226 268,-315 273.1334,-346.7731 278.0128,-382.7681 281.5413,-410.2354"/>
<polygon fill="#000000" stroke="#000000" points="278.0901,-410.8407 282.8252,-420.3184 285.034,-409.9564 278.0901,-410.8407"/>
</g>
<!-- Node0x5604dfa672c0 -->
<g id="node7" class="node">
<title>Node0x5604dfa672c0</title>
<polygon fill="none" stroke="#000000" points="245,-90.5 245,-143.5 331,-143.5 331,-90.5 245,-90.5"/>
<text text-anchor="start" x="253" y="-128.3" font-family="Times,serif" font-size="14.00" fill="#000000">[B4]</text>
<text text-anchor="start" x="253" y="-113.3" font-family="Times,serif" font-size="14.00" fill="#000000"> 1: i</text>
<text text-anchor="start" x="253" y="-98.3" font-family="Times,serif" font-size="14.00" fill="#000000"> 2: [B4.1]++</text>
</g>
<!-- Node0x5604dfa67398&#45;&gt;Node0x5604dfa672c0 -->
<g id="edge5" class="edge">
<title>Node0x5604dfa67398&#45;&gt;Node0x5604dfa672c0</title>
<path fill="none" stroke="#000000" d="M267.6854,-180.4831C270.5998,-171.3756 273.5965,-162.0109 276.3631,-153.3654"/>
<polygon fill="#000000" stroke="#000000" points="279.772,-154.1962 279.4863,-143.6053 273.105,-152.0628 279.772,-154.1962"/>
</g>
<!-- Node0x5604dfa672c0&#45;&gt;Node0x5604dfa671e8 -->
<g id="edge4" class="edge">
<title>Node0x5604dfa672c0&#45;&gt;Node0x5604dfa671e8</title>
<path fill="none" stroke="#000000" d="M277.3935,-90.4838C273.9454,-81.8636 270.0592,-72.148 266.383,-62.9574"/>
<polygon fill="#000000" stroke="#000000" points="269.6187,-61.6226 262.6551,-53.6377 263.1194,-64.2223 269.6187,-61.6226"/>
</g>
<!-- Node0x5604dfa675a0 -->
<g id="node8" class="node">
<title>Node0x5604dfa675a0</title>
<polygon fill="none" stroke="#000000" points="128.5,-436.5 128.5,-472.5 227.5,-472.5 227.5,-436.5 128.5,-436.5"/>
<text text-anchor="start" x="136.5" y="-450.8" font-family="Times,serif" font-size="14.00" fill="#000000">[B7 (ENTRY)]</text>
</g>
<!-- Node0x5604dfa675a0&#45;&gt;Node0x5604dfa67490 -->
<g id="edge8" class="edge">
<title>Node0x5604dfa675a0&#45;&gt;Node0x5604dfa67490</title>
<path fill="none" stroke="#000000" d="M184.7933,-436.2104C189.1972,-424.3536 195.1328,-408.3733 200.7084,-393.3619"/>
<polygon fill="#000000" stroke="#000000" points="204.0998,-394.2832 204.3008,-383.6903 197.5378,-391.8458 204.0998,-394.2832"/>
</g>
</g>
</svg>
